<svg width="60" height="60" viewBox="0 0 60 60" fill="none" xmlns="http://www.w3.org/2000/svg">
<path d="M21.7058 10.0251C22.2232 9.92059 22.5769 9.42493 22.5113 8.89652C22.476 8.61185 22.3307 8.36213 22.1012 8.19366C21.9212 8.06108 21.7103 7.99716 21.4896 8.00062C21.4341 8.0022 21.3786 8.00849 21.3228 8.01952C18.3816 8.61154 14.9007 10.9021 12.6603 13.7199C10.4145 16.5358 8.94425 20.5543 9.00162 23.7184C9.00698 24.01 9.12961 24.2761 9.34681 24.4676C9.53091 24.6298 9.76577 24.7179 10.0066 24.7179C10.0482 24.7179 10.0901 24.7154 10.1321 24.7101C10.6415 24.6449 11.0188 24.2012 11.0094 23.6788C10.9615 21.0071 12.2823 17.4408 14.2214 15.0054C15.8572 12.9484 18.8056 10.6109 21.7055 10.0251H21.7058Z" fill="#5D2059"/>
<path d="M47.3393 13.7195C45.0992 10.9024 41.618 8.61175 38.6768 8.01973C38.621 8.0084 38.5655 8.00241 38.5091 8.00052C38.2928 7.99328 38.0791 8.0613 37.8981 8.19356C37.6693 8.36203 37.5236 8.61175 37.4886 8.89643C37.4231 9.42484 37.7771 9.92049 38.2941 10.025C41.194 10.6108 44.1424 12.9483 45.7785 15.0056C47.7173 17.4404 49.0381 21.007 48.9905 23.6787C48.9811 24.2014 49.3584 24.6448 49.8679 24.71C49.9095 24.7153 49.9514 24.7178 49.9933 24.7178C50.2342 24.7178 50.469 24.6297 50.6528 24.4678C50.8706 24.2763 50.9933 24.0103 50.9986 23.7183C51.0563 20.5539 49.5857 16.5357 47.3396 13.7195H47.3393Z" fill="#5D2059"/>
<path d="M34.0318 47.9199H25.9676C25.5653 47.9199 25.2892 48.3261 25.4235 48.7119C26.0912 50.629 27.8871 52.0023 29.9995 52.0023C32.112 52.0023 33.9079 50.629 34.5756 48.7119C34.7099 48.3261 34.4337 47.9199 34.0315 47.9199H34.0318Z" fill="#5D2059"/>
<path d="M47.1012 40.1595C45.7863 37.8472 45.094 35.2228 45.094 32.5508V27.4547C45.094 20.1155 40.0363 13.9825 33.2757 12.4593V11.9882C33.2757 10.1469 31.8091 8.6543 30.0003 8.6543C28.1914 8.6543 26.7249 10.1469 26.7249 11.9882V12.4593C19.9646 13.9825 14.9065 20.1155 14.9065 27.4547V32.5505C14.9065 35.2221 14.2143 37.8465 12.8994 40.1592L11.6741 42.3144C10.4922 44.0788 11.7336 46.4699 13.8319 46.4699H46.169C48.2673 46.4699 49.5087 44.0788 48.3268 42.3144L47.1015 40.1592L47.1012 40.1595Z" fill="#F2C3DD"/>
</svg>
