<svg width="60" height="60" viewBox="0 0 60 60" fill="none" xmlns="http://www.w3.org/2000/svg">
<path d="M41.0001 27C45.4195 27 49.0001 23.4193 49.0001 19C49.0001 14.5807 45.4195 11 41.0001 11C36.5808 11 33.0001 14.5807 33.0001 19C33.0001 23.4193 36.5808 27 41.0001 27Z" fill="#5D2059"/>
<path d="M19.0001 32C23.4195 32 27.0001 28.4162 27.0001 24C27.0001 19.5838 23.4195 16 19.0001 16C14.5808 16 11.0001 19.5838 11.0001 24C11.0001 28.4162 14.5808 32 19.0001 32Z" fill="#F2C3DD"/>
<path fill-rule="evenodd" clip-rule="evenodd" d="M13.9099 32.4233C13.5324 32.1639 13.0929 32 12.6349 32H12.4371C8.79025 32 5.90697 34.8898 6.00243 38.4554L6.17825 45.0659C6.2026 45.9814 6.84488 46.7671 7.74385 46.9418C11.2725 47.6273 15.0611 48 19.0002 48C22.9393 48 26.7279 47.6273 30.2565 46.9418C31.1555 46.7671 31.7978 45.9814 31.8221 45.0659L31.998 38.4554C32.0901 34.8898 29.2101 32 25.5633 32H25.3653C24.9073 32 24.4678 32.1639 24.0903 32.4233C22.6426 33.4179 20.8893 34 19.0001 34C17.1109 34 15.3576 33.4179 13.9099 32.4233Z" fill="#F2C3DD"/>
<path fill-rule="evenodd" clip-rule="evenodd" d="M35.9099 27.4233C35.5324 27.1639 35.0929 27 34.6349 27H33.9921C32.1924 27 30.576 27.6733 29.3949 28.7703C28.4885 29.6121 29.1032 30.9625 30.162 31.6022C30.7385 31.9505 31.2758 32.3657 31.7636 32.8439C33.4367 34.4851 34.322 36.6605 34.258 38.971L34.2077 40.8116C34.1791 41.8572 34.961 42.7517 36.0042 42.8284C37.5413 42.9412 39.1101 43 40.7045 43C44.746 43 48.6277 42.6254 52.2436 41.9367C53.1463 41.7648 53.7933 40.9778 53.8183 40.0592L53.9979 33.4554C54.0922 29.8898 51.1467 27 47.4168 27H47.4135H47.3653C46.9073 27 46.4678 27.1639 46.0903 27.4233C44.6426 28.4179 42.8893 29 41.0001 29C39.1109 29 37.3576 28.4179 35.9099 27.4233Z" fill="#5D2059"/>
</svg>
