<svg width="60" height="60" viewBox="0 0 60 60" fill="none" xmlns="http://www.w3.org/2000/svg">
<path d="M6.58008 27.4531V25.2734H17.0039V27.4531H13.1016V38H10.4824V27.4531H6.58008ZM18.1887 38V25.2734H26.7316V27.4531H20.8254V30.5469H26.2922V32.7266H20.8254V35.8203H26.7492V38H18.1887ZM30.7816 25.2734L33.3832 29.6504H33.4711L36.0902 25.2734H39.0785L35.1938 31.6367L39.1664 38H36.1078L33.4711 33.623H33.3832L30.7465 38H27.7055L31.6957 31.6367L27.7758 25.2734H30.7816ZM39.7359 27.4531V25.2734H50.1598V27.4531H46.2574V38H43.6383V27.4531H39.7359Z" fill="#5D2059"/>
<rect x="24" y="19" width="30" height="15" rx="4" fill="#F2C3DD"/>
</svg>
