<svg width="60" height="60" viewBox="0 0 60 60" fill="none" xmlns="http://www.w3.org/2000/svg">
<path d="M42.0298 7.35008C43.2369 5.49988 45.7153 4.97854 47.5655 6.18563L54.2657 10.5569C56.1159 11.764 56.6372 14.2424 55.4301 16.0926L35.0656 47.3068L23.5953 50.2473L21.6653 38.5643L42.0298 7.35008Z" fill="#F2C3DD"/>
<path d="M21.6653 38.5645L35.0657 47.307L23.5953 50.2474L21.6653 38.5645Z" fill="#FFE9F5"/>
<path d="M42.0298 7.35008C43.2369 5.49988 45.7153 4.97854 47.5655 6.18563L54.2657 10.5569C56.1159 11.764 56.6372 14.2424 55.4301 16.0926L53.5177 19.0239L46.4825 14.4341L40.1174 10.2814L42.0298 7.35008Z" fill="#5D2059"/>
<path fill-rule="evenodd" clip-rule="evenodd" d="M27.7662 49.1781L23.5952 50.2473L22.8934 45.999L27.7662 49.1781Z" fill="#F2C3DD"/>
<path d="M21.5001 52.0002C14.7647 56.1397 7.99665 52.9479 8.36941 46.1112C8.83216 37.6238 18.3275 34.3469 16.9199 27.0484C15.7487 20.9756 12.3355 19.2873 6.78923 19.9864" stroke="#F2C3DD" stroke-width="2" stroke-linecap="round"/>
</svg>
