<svg width="34" height="34" viewBox="0 0 34 34" fill="none" xmlns="http://www.w3.org/2000/svg">
<path d="M22.9119 7.21726C27.2459 11.5512 27.2459 18.578 22.9119 22.9119C18.5779 27.2459 11.5512 27.2459 7.21726 22.9119C2.88331 18.578 2.88331 11.5512 7.21726 7.21726C11.5512 2.88331 18.5779 2.88331 22.9119 7.21726Z" fill="#485DAB"/>
<path d="M20.434 22.912C19.7496 22.2277 19.7496 21.1182 20.434 20.4339C21.1183 19.7496 22.2277 19.7496 22.912 20.4339L29.5203 27.0421C30.2046 27.7264 30.2046 28.8359 29.5203 29.5202C28.836 30.2045 27.7265 30.2045 27.0422 29.5202L20.434 22.912Z" fill="#485DAB"/>
<path d="M21.26 8.86939C24.6815 12.2909 24.6815 17.8384 21.26 21.2599C17.8384 24.6814 12.291 24.6814 8.86948 21.2599C5.44794 17.8384 5.44794 12.2909 8.86948 8.86939C12.291 5.44785 17.8384 5.44785 21.26 8.86939Z" fill="white"/>
<path fill-rule="evenodd" clip-rule="evenodd" d="M15.0165 10.2002C15.4859 10.2002 15.8665 10.5808 15.8665 11.0502L15.8665 18.9835C15.8665 19.453 15.4859 19.8335 15.0165 19.8335C14.5471 19.8335 14.1665 19.453 14.1665 18.9835L14.1665 11.0502C14.1665 10.5808 14.5471 10.2002 15.0165 10.2002Z" fill="#485DAB"/>
<path fill-rule="evenodd" clip-rule="evenodd" d="M19.8335 15.0165C19.8335 15.4859 19.4529 15.8665 18.9835 15.8665L11.0502 15.8665C10.5807 15.8665 10.2002 15.4859 10.2002 15.0165C10.2002 14.5471 10.5807 14.1665 11.0502 14.1665L18.9835 14.1665C19.4529 14.1665 19.8335 14.5471 19.8335 15.0165Z" fill="#485DAB"/>
</svg>
