<svg width="34" height="34" viewBox="0 0 34 34" fill="none" xmlns="http://www.w3.org/2000/svg">
<path d="M3.9668 9.0665C3.9668 7.18874 5.48903 5.6665 7.3668 5.6665H26.6335C28.5112 5.6665 30.0335 7.18874 30.0335 9.0665V27.1998C30.0335 29.0776 28.5112 30.5998 26.6335 30.5998H7.3668C5.48903 30.5998 3.9668 29.0776 3.9668 27.1998V9.0665Z" fill="#E4DEFC"/>
<path d="M27.1085 15.1627C27.1085 16.7299 26.1323 17.633 24.864 17.633C23.5823 17.633 22.6128 16.7232 22.6128 15.1627C22.6128 13.5955 23.5823 12.6924 24.864 12.6924C26.1323 12.6924 27.1085 13.5955 27.1085 15.1627ZM26.0925 15.1627C26.0925 14.1334 25.6077 13.5756 24.864 13.5756C24.1202 13.5756 23.6288 14.1334 23.6288 15.1627C23.6288 16.192 24.1202 16.7498 24.864 16.7498C25.6077 16.7498 26.0925 16.192 26.0925 15.1627Z" fill="#485DAB"/>
<path d="M16.8726 12.7588H18.1077L19.4425 16.0193H19.4956L20.8304 12.7588H22.0655V17.5666H21.096V14.4189H21.0562L19.8011 17.5467H19.137L17.8819 14.4057H17.8421V17.5666H16.8726V12.7588Z" fill="#485DAB"/>
<path d="M13.0381 17.5666V12.7588H16.2654V13.5822H14.0342V14.751H16.0994V15.5744H14.0342V16.7432H16.2721V17.5666H13.0381Z" fill="#485DAB"/>
<path d="M7.20508 12.7588H8.44023L9.775 16.0193H9.82812L11.1629 12.7588H12.398V17.5666H11.4285V14.4189H11.3887L10.1336 17.5467H9.46953L8.21445 14.4057H8.17461V17.5666H7.20508V12.7588Z" fill="#485DAB"/>
<path d="M10.2002 4.53324C10.2002 3.90731 10.7076 3.3999 11.3335 3.3999C11.9595 3.3999 12.4669 3.90731 12.4669 4.53324V7.93324C12.4669 8.55916 11.9595 9.06657 11.3335 9.06657C10.7076 9.06657 10.2002 8.55916 10.2002 7.93324V4.53324Z" fill="#485DAB"/>
<path d="M21.5332 4.53324C21.5332 3.90731 22.0406 3.3999 22.6665 3.3999C23.2925 3.3999 23.7999 3.90731 23.7999 4.53324V7.93324C23.7999 8.55916 23.2925 9.06657 22.6665 9.06657C22.0406 9.06657 21.5332 8.55916 21.5332 7.93324V4.53324Z" fill="#485DAB"/>
<path fill-rule="evenodd" clip-rule="evenodd" d="M7.3667 24.9334C7.3667 24.6204 7.6204 24.3667 7.93337 24.3667H15.8667C16.1797 24.3667 16.4334 24.6204 16.4334 24.9334C16.4334 25.2463 16.1797 25.5 15.8667 25.5H7.93337C7.6204 25.5 7.3667 25.2463 7.3667 24.9334Z" fill="#485DAB"/>
<path fill-rule="evenodd" clip-rule="evenodd" d="M7.3667 22.0999C7.3667 21.7869 7.6204 21.5332 7.93337 21.5332H22.6667C22.9797 21.5332 23.2334 21.7869 23.2334 22.0999C23.2334 22.4128 22.9797 22.6665 22.6667 22.6665H7.93337C7.6204 22.6665 7.3667 22.4128 7.3667 22.0999Z" fill="#485DAB"/>
</svg>
