<svg width="34" height="34" viewBox="0 0 34 34" fill="none" xmlns="http://www.w3.org/2000/svg">
<path d="M24.0094 23.3148C22.3334 22.9236 20.4238 22.4778 20.5988 21.0333C20.6988 20.2086 22.0423 19.7716 23.5824 19.2707C25.986 18.4889 28.8681 17.5515 28.2479 14.7415C26.3687 8.19295 19.4855 4.32753 12.7875 6.09432C6.0331 7.87596 2.02468 14.7102 3.83443 21.3591C5.64417 28.008 12.5868 31.9537 19.3411 30.172C21.6769 29.5559 23.6844 28.3355 25.2363 26.7275C25.2902 26.6603 25.3515 26.5912 25.4213 26.5201C26.2358 25.6908 26.7084 24.344 25.9619 23.9198C25.5166 23.6667 24.7882 23.4967 24.0094 23.3148Z" fill="#E4DEFC"/>
<path d="M16.3885 10.0942C16.0924 9.28606 16.5075 8.39093 17.3156 8.09482C18.1237 7.79872 19.0188 8.21377 19.3149 9.02188C19.611 9.82998 19.196 10.7251 18.3879 11.0212C17.5798 11.3173 16.6846 10.9023 16.3885 10.0942Z" fill="#485DAB"/>
<path d="M10.6962 10.6531C10.4001 9.84502 10.8151 8.94988 11.6232 8.65378C12.4313 8.35767 13.3265 8.77273 13.6226 9.58083C13.9187 10.3889 13.5036 11.2841 12.6955 11.5802C11.8874 11.8763 10.9923 11.4612 10.6962 10.6531Z" fill="#485DAB" fill-opacity="0.7"/>
<path d="M6.53522 15.0088C6.23911 14.2007 6.65417 13.3056 7.46227 13.0095C8.27037 12.7134 9.16551 13.1284 9.46161 13.9365C9.75772 14.7446 9.34266 15.6398 8.53456 15.9359C7.72646 16.232 6.83132 15.8169 6.53522 15.0088Z" fill="#485DAB" fill-opacity="0.5"/>
<path d="M5.9631 21.3184C5.667 20.5103 6.08205 19.6152 6.89015 19.3191C7.69826 19.023 8.59339 19.4381 8.8895 20.2462C9.1856 21.0543 8.77055 21.9494 7.96244 22.2455C7.15434 22.5416 6.25921 22.1265 5.9631 21.3184Z" fill="#485DAB" fill-opacity="0.4"/>
<path d="M10.3694 26.0438C10.0733 25.2357 10.4883 24.3406 11.2964 24.0445C12.1045 23.7484 12.9997 24.1634 13.2958 24.9715C13.5919 25.7796 13.1768 26.6748 12.3687 26.9709C11.5606 27.267 10.6655 26.8519 10.3694 26.0438Z" fill="#485DAB" fill-opacity="0.4"/>
<path d="M16.679 26.6159C16.3829 25.8078 16.7979 24.9127 17.606 24.6166C18.4141 24.3205 19.3093 24.7355 19.6054 25.5436C19.9015 26.3517 19.4864 27.2469 18.6783 27.543C17.8702 27.8391 16.9751 27.424 16.679 26.6159Z" fill="#485DAB" fill-opacity="0.3"/>
<path d="M26.4794 4.34094L18.5022 13.7685C17.9894 14.3746 18.0052 15.2669 18.5393 15.8544C19.1092 16.4812 20.0717 16.5479 20.7225 16.0055L30.2098 8.09951C31.4104 7.09898 31.4928 5.28349 30.3877 4.17837C29.2882 3.07888 27.4838 3.15393 26.4794 4.34094Z" fill="#485DAB"/>
<path d="M16.3678 14.0866C18.4482 13.5404 19.4648 14.9089 20.1628 15.8609C20.8607 16.8129 21.0156 18.9075 18.2866 20.5331C14.4929 22.793 11.046 19.3368 12.0885 19.5467C13.1311 19.7567 13.9959 18.4345 14.0977 17.5573C14.1996 16.68 14.2875 14.6329 16.3678 14.0866Z" fill="white"/>
<path d="M20.2986 18.5208C19.9717 19.1994 19.3468 19.9017 18.2866 20.5332C14.4929 22.793 11.046 19.3368 12.0885 19.5468C13.0751 19.7455 13.9024 18.5723 14.0748 17.7023C14.639 17.6769 15.1709 18.0733 15.6397 18.8712C16.3515 20.0824 18.7558 19.716 20.2986 18.5208Z" fill="#485DAB"/>
</svg>
