<svg width="60" height="60" viewBox="0 0 60 60" fill="none" xmlns="http://www.w3.org/2000/svg">
<path d="M44.5601 39.4632L42.2085 37.6548C42.203 37.6573 42.1984 37.6609 42.1933 37.6635L41.4966 37.1273C41.5001 37.1227 41.5027 37.1186 41.5052 37.114L39.3185 35.433C39.316 35.4376 39.3134 35.4417 39.3104 35.4463L36.4839 33.2726C36.4864 33.2675 36.489 33.2629 36.4915 33.2583L25.1932 24.5702C25.1891 24.5738 25.1851 24.5773 25.1815 24.5809L22.3561 22.4088C22.3596 22.4047 22.3627 22.4016 22.3667 22.3975L20.5945 21.0342L20.18 20.7155L18.1062 19.1209C18.1006 19.1234 18.096 19.1255 18.0909 19.128L12.8148 15.0723L11.1534 17.2587L15.4556 20.5671C13.6234 21.7023 11.9243 23.0544 10.3758 24.6121L8.5041 26.495C6.56548 28.4452 6.56548 31.5948 8.5041 33.545L10.3758 35.4279C13.0243 38.0922 16.1142 40.1559 19.5575 41.5601C22.8829 42.9168 26.3964 43.6049 30.0005 43.6049C33.6045 43.6049 37.1175 42.9168 40.4434 41.5601C40.9408 41.3576 41.4295 41.1412 41.9116 40.9104L47.1862 44.9662L48.8476 42.7797L44.5453 39.4714C44.5499 39.4688 44.5555 39.4668 44.5601 39.4632ZM23.5176 26.7664C23.0309 27.7461 22.7568 28.8505 22.7568 30.02C22.7568 34.0446 25.9998 37.3064 30.0005 37.3064C31.8516 37.3064 33.5399 36.6076 34.8204 35.4581L37.6454 37.6307C35.7907 39.5164 33.2536 40.7212 30.4424 40.8363C30.1474 40.8424 29.852 40.8424 29.5575 40.8363C23.8278 40.602 19.2387 35.8402 19.2387 30.02C19.2387 28.0438 19.7671 26.1893 20.6916 24.5932L23.5176 26.7664Z" fill="#F2C3DD"/>
<path d="M49.6239 24.6121C46.9754 21.9468 43.8865 19.8841 40.4426 18.4793C37.1168 17.1226 33.6032 16.4351 29.9997 16.4351C26.9301 16.4351 23.9257 16.9338 21.0483 17.9202L22.2943 18.8783L23.7431 19.9926L24.6051 20.655C26.0727 19.7966 27.7591 19.2769 29.5573 19.2037C29.8517 19.1976 30.1472 19.1976 30.4421 19.2037C36.1719 19.438 40.761 24.2003 40.761 30.0205C40.761 30.9817 40.6364 31.9133 40.4014 32.8019L42.7143 34.5802L44.663 36.0786L46.9245 37.8179C47.8684 37.0853 48.769 36.2888 49.6239 35.4289L51.4956 33.546C53.4342 31.5958 53.4342 28.4462 51.4956 26.496L49.6239 24.6131V24.6121Z" fill="#F2C3DD"/>
<path d="M37.2443 30.0198C37.2443 25.9952 34.0013 22.7329 30.0006 22.7329C29.221 22.7329 28.4709 22.8562 27.7676 23.0859L37.2361 30.3661C37.2417 30.2515 37.2443 30.1359 37.2443 30.0198Z" fill="#F2C3DD"/>
<rect width="2.82771" height="45.489" transform="matrix(0.605469 -0.795869 0.79238 0.610027 11.1265 17.2505)" fill="#5D2059"/>
</svg>
