<svg width="60" height="60" viewBox="0 0 60 60" fill="none" xmlns="http://www.w3.org/2000/svg">
<path d="M28.285 37.8583C29.0618 36.5636 30.9382 36.5636 31.715 37.8583L40.1826 51.971C40.9824 53.3041 40.0222 55 38.4676 55H21.5324C19.9778 55 19.0176 53.3041 19.8174 51.971L28.285 37.8583Z" fill="#5D2059"/>
<circle cx="30" cy="29" r="20" fill="#F2C3DD"/>
<circle cx="30" cy="29" r="16" fill="white"/>
<mask id="mask0_466_5264" style="mask-type:alpha" maskUnits="userSpaceOnUse" x="14" y="13" width="32" height="32">
<circle cx="30" cy="29" r="16" fill="#F5F5F5"/>
</mask>
<g mask="url(#mask0_466_5264)">
<path d="M36.5882 44.2677L23.4117 13.2089C28.4314 11.3266 39.8823 10.3854 45.5294 21.6795C51.1764 32.9736 41.9215 41.4442 36.5882 44.2677Z" fill="#FFE9F5"/>
<path d="M23.7634 12.9998L36.9399 44.0587C31.9203 45.941 20.4693 46.8822 14.8222 35.5881C9.17518 24.294 18.4301 15.8234 23.7634 12.9998Z" fill="white"/>
</g>
<circle cx="30" cy="29" r="6" fill="#F2C3DD"/>
<circle cx="30" cy="29" r="4" fill="white"/>
<path d="M30.7532 16.0038C30.3787 16.5239 29.6213 16.5239 29.2468 16.0038C27.8573 14.0738 26 11.0029 26 9C26 6 28.5 5 30 5C31.5 5 34 6 34 9C34 11.0029 32.1427 14.0738 30.7532 16.0038Z" fill="#5D2059"/>
<circle cx="30" cy="9" r="2" fill="white"/>
</svg>
