<svg width="60" height="60" viewBox="0 0 60 60" fill="none" xmlns="http://www.w3.org/2000/svg">
<rect x="5.5" y="15" width="21" height="30" rx="4" fill="#F2C3DD"/>
<rect x="33.5" y="15" width="21" height="30" rx="4" fill="#F2C3DD"/>
<path d="M11.502 36L11.4844 34.084L16.0547 29.8828C17.2412 28.749 17.8828 28.0459 17.8828 27.0352C17.8828 25.9014 17.0303 25.1982 15.8613 25.207C14.666 25.1982 13.8838 25.9541 13.8926 27.1758H11.3789C11.3701 24.6885 13.2158 23.0977 15.8965 23.0977C18.6211 23.0977 20.4316 24.6533 20.4316 26.8594C20.4316 28.3096 19.7285 29.4961 17.1094 31.8691L15.1758 33.75V33.8203H20.6074V36H11.502Z" fill="#5D2059"/>
<path d="M44.4414 36.1758C41.251 36.1758 39.3262 33.8027 39.3262 29.6367C39.3262 25.4795 41.2686 23.0977 44.4414 23.0977C47.6143 23.0977 49.5566 25.4795 49.5566 29.6367C49.5566 33.8203 47.623 36.1758 44.4414 36.1758ZM42.0332 29.6367C42.0156 32.5723 42.9648 33.9961 44.4414 33.9961C45.918 33.9961 46.8584 32.5723 46.8496 29.6367C46.8584 26.7275 45.9092 25.2686 44.4414 25.2598C42.9736 25.2686 42.0332 26.7275 42.0332 29.6367Z" fill="#5D2059"/>
<circle cx="30" cy="26.5" r="1.5" fill="#5D2059"/>
<circle cx="30" cy="33.5" r="1.5" fill="#5D2059"/>
</svg>
